# Blender 5.2.0 LTS
# www.blender.org
mtllib hall_blocked.mtl
o Hall_Blocked
v 0.000000 0.000000 1.000000
v 0.000000 0.000000 -1.000000
v 0.000000 2.500000 1.000000
v 0.000000 2.500000 -1.000000
v 0.000000 0.000000 0.525000
v 0.000000 0.000000 -0.525000
v 0.000000 2.000000 0.525000
v 0.000000 2.000000 -0.525000
v -1.378382 0.000000 1.000000
v -1.378382 0.000000 -1.000000
v -1.378382 2.500000 -1.000000
v -1.378382 2.500000 1.000000
vn 1.0000 -0.0000 -0.0000
vn -0.0000 -0.0000 -1.0000
vn -1.0000 -0.0000 -0.0000
vn -0.0000 1.0000 -0.0000
vn -0.0000 -0.0000 1.0000
vt 0.000175 0.775309
vt 0.000175 0.275658
vt 0.399895 0.275658
vt 0.399895 0.775309
vt 0.676077 0.500175
vt 0.951561 0.500175
vt 0.951561 0.999825
vt 0.676077 0.999825
vt 0.495178 0.499826
vt 0.400244 0.499825
vt 0.400245 0.000175
vt 0.799965 0.000175
vt 0.799965 0.499825
vt 0.705031 0.499825
vt 0.705031 0.100105
vt 0.495178 0.100105
vt 0.304962 0.000175
vt 0.399895 0.000175
vt 0.000175 0.000175
vt 0.095108 0.000175
vt 0.400244 0.999825
vt 0.400244 0.500175
vt 0.675728 0.500175
vt 0.675728 0.999825
s 0
usemtl 
f 12/1/1 9/2/1 10/3/1 11/4/1
f 1/5/2 9/6/2 12/7/2 3/8/2
f 5/9/3 1/10/3 3/11/3 4/12/3 2/13/3 6/14/3 8/15/3 7/16/3
f 6/17/4 2/18/4 10/3/4 9/2/4 1/19/4 5/20/4
f 11/21/5 10/22/5 2/23/5 4/24/5
